<?xml version="1.0" encoding="UTF-8" standalone="no"?>
<!-- Created with Inkscape (http://www.inkscape.org/) -->

<svg
   version="1.1"
   id="svg2"
   width="1961.2009"
   height="378.47653"
   viewBox="0 0 1961.2008 378.47653"
   sodipodi:docname="icon.svg"
   inkscape:version="1.2.2 (1:1.2.2+202212051552+b0a8486541)"
   xmlns:inkscape="http://www.inkscape.org/namespaces/inkscape"
   xmlns:sodipodi="http://sodipodi.sourceforge.net/DTD/sodipodi-0.dtd"
   xmlns="http://www.w3.org/2000/svg"
   xmlns:svg="http://www.w3.org/2000/svg">
  <defs
     id="defs6" />
  <sodipodi:namedview
     id="namedview4"
     pagecolor="#505050"
     bordercolor="#eeeeee"
     borderopacity="1"
     inkscape:showpageshadow="0"
     inkscape:pageopacity="0"
     inkscape:pagecheckerboard="0"
     inkscape:deskcolor="#505050"
     showgrid="false"
     inkscape:zoom="0.6235468"
     inkscape:cx="1013.5566"
     inkscape:cy="189.24001"
     inkscape:window-width="1920"
     inkscape:window-height="1015"
     inkscape:window-x="0"
     inkscape:window-y="0"
     inkscape:window-maximized="1"
     inkscape:current-layer="g10">
    <inkscape:page
       x="0"
       y="0"
       id="page8"
       width="1961.2008"
       height="378.47653" />
  </sodipodi:namedview>
  <g
     id="g10"
     inkscape:groupmode="layer"
     inkscape:label="Page 1"
     transform="matrix(1.3333333,0,0,-1.3333333,1.8283369e-4,378.47605)">
    <path
       d="m 205.821,173.801 c -0.237,1.171 -1.126,1.675 -1.779,2.332 -20.009,20.033 -40.052,40.037 -60.026,60.105 -1.507,1.512 -2.327,1.799 -4.008,0.109 -30.786,-30.905 -61.6361,-61.745 -92.5264,-92.537 -1.5664,-1.561 -1.4378,-2.323 0.0493,-3.805 30.8851,-30.801 61.7311,-61.6421 92.5271,-92.5312 1.507,-1.5129 2.283,-1.5726 3.81,-0.0207 9.325,9.4789 18.729,18.8719 28.197,28.2117 1.551,1.5274 1.744,2.3774 0.074,4.018 -9.423,9.2512 -18.665,18.6742 -28.088,27.9202 -1.735,1.705 -1.927,2.554 -0.064,4.398 20.038,19.865 39.972,39.844 59.927,59.793 0.667,0.668 1.299,1.37 1.907,2.007 M 205.777,44.898 C 195.602,34.798 185.387,24.727 175.262,14.577 170.404,9.69883 165.033,5.58789 158.53,3.28516 140.74,-3.03516 124.23,-0.435938 110.719,12.8168 77.8875,45.0371 45.4406,77.6512 13.0633,110.336 c -17.47385,17.637 -17.39963,45.655 0.1137,63.311 32.2585,32.526 64.666,64.908 97.187,97.178 17.478,17.34 45.517,17.384 63.114,0.084 21.956,-21.59 43.729,-43.373 65.338,-65.309 17.088,-17.35 17.494,-44.87 0.534,-62.457 -19.984,-20.71 -40.6,-40.818 -60.935,-61.1918 -0.741,-0.741 -1.423,-1.5371 -2.14,-2.3071 -2.006,-1.1671 -1.967,-2.205 -0.262,-3.875 9.463,-9.305 18.818,-18.7191 28.172,-28.1371 0.732,-0.732 2.076,-1.2461 1.592,-2.734"
       style="fill:#ac9393;fill-opacity:1;fill-rule:nonzero;stroke:none;stroke-width:0.1"
       id="path14" />
    <path
       d="m 338.921,166.659 c 0,-10.61 0.055,-21.215 -0.044,-31.824 -0.02,-2.026 0.563,-2.55 2.554,-2.535 12.903,0.089 25.801,0.024 38.703,0.054 3.257,0.01 6.479,0.356 9.626,1.26 13.951,4.013 22.88,16.545 23.271,32.486 0.459,18.689 -11.885,35.481 -34.117,34.957 -12.419,-0.291 -24.847,-0.118 -37.27,0.011 -2.352,0.024 -2.792,-0.713 -2.772,-2.877 0.109,-10.511 0.049,-21.022 0.049,-31.532 m -27.519,-25.124 c 0,26.868 0.044,53.741 -0.07,80.608 -0.01,2.6 0.697,3.084 3.148,3.074 22.183,-0.104 44.371,-0.024 66.554,-0.074 13.96,-0.03 26.828,-3.612 37.818,-12.542 13.338,-10.827 19.826,-25.252 20.864,-42.088 1.166,-18.812 -4.423,-35.308 -18.68,-48.186 -10.58,-9.566 -23.359,-13.934 -37.452,-14.226 -13.575,-0.282 -27.16,-0.164 -40.734,-0.04 -2.649,0.025 -3.519,-0.44 -3.489,-3.335 0.178,-14.7221 0.04,-29.453 0.128,-44.1729 0.01,-2.1461 -0.38,-2.95 -2.757,-2.8922 -7.457,0.1731 -14.919,0.1582 -22.375,0.0051 -2.353,-0.0492 -3.02,0.5731 -3.01,2.9711 0.089,26.966 0.055,53.9319 0.055,80.8979"
       style="fill:#ffe6d5;fill-opacity:1;fill-rule:nonzero;stroke:none;stroke-width:0.1"
       id="path16" />
    <path
       d="m 602.852,130.053 c 0,6.083 -0.09,11.633 0.049,17.172 0.05,1.843 -0.554,2.693 -2.243,3.306 -9.424,3.425 -19.124,4.699 -29.027,3.325 -14.123,-1.961 -23.977,-9.502 -28.282,-23.338 -3.088,-9.923 -2.905,-19.965 0.268,-29.898 6.3,-19.7509 24.08,-23.952 37.917,-20.0481 11.212,3.1633 16.663,11.7461 19.563,22.3561 2.476,9.097 1.607,18.413 1.755,27.125 m 4.067,-50.4401 c -1.828,-2.277 -3.089,-4.8117 -4.838,-7.0258 -9.231,-11.6621 -21.575,-16.8473 -36.143,-16.416 -26.112,0.7699 -44.064,16.8898 -49.194,43.4711 -2.619,13.5988 -2.515,27.0408 2.58,40.0618 7.367,18.837 21.763,29.59 41.099,33.716 22.835,4.883 44.786,0.989 66.04,-8.025 1.65,-0.697 1.596,-1.804 1.591,-3.158 -0.009,-24.006 -0.009,-48.012 0,-72.0241 0,-1.907 -0.04,-3.8289 0.148,-5.732 0.579,-5.8758 3.208,-8.5039 9.128,-8.3321 2.9,0.084 3.197,-0.9679 3.103,-3.3398 -0.163,-4.107 -0.045,-8.2231 -0.04,-12.3391 0,-1.0527 0.163,-2.075 -1.408,-2.298 -6.276,-0.8949 -12.557,-1.4481 -18.808,0.05 -8.164,1.9511 -12.834,7.832 -13.249,16.5191 -0.074,1.6211 -0.009,3.2461 -0.009,4.8719"
       style="fill:#ffe6d5;fill-opacity:1;fill-rule:nonzero;stroke:none;stroke-width:0.1"
       id="path18" />
    <path
       d="m 788.592,80.2988 h 16.307 c 13.293,0 26.586,-0.0398 39.879,0.0391 1.888,0.0101 2.679,-0.291 2.624,-2.4418 -0.158,-6.018 -0.103,-12.052 -0.024,-18.0762 0.024,-1.5711 -0.341,-2.134 -2.037,-2.134 -30.603,0.0493 -61.207,0.034 -91.815,0.0442 -2.016,0 -2.984,3.316 -1.734,5.959 0.281,0.598 0.712,1.1269 1.072,1.691 18.052,28.3488 36.015,56.7539 55.534,84.1309 0.42,0.588 0.801,1.206 1.453,2.189 h -3.218 c -16.351,0 -32.708,0.045 -49.059,-0.055 -2.15,-0.009 -2.729,0.504 -2.659,2.659 0.168,5.446 0.134,10.902 0.014,16.352 -0.039,1.833 0.411,2.387 2.324,2.382 29.268,-0.064 58.538,-0.084 87.802,0.02 2.431,0.009 2.619,-0.954 2.456,-2.812 -0.104,-1.142 -0.815,-1.917 -1.374,-2.782 -18.413,-28.568 -36.597,-57.283 -56.171,-85.0902 -0.371,-0.5289 -0.711,-1.0769 -1.374,-2.075"
       style="fill:#ffe6d5;fill-opacity:1;fill-rule:nonzero;stroke:none;stroke-width:0.1"
       id="path20" />
    <path
       d="m 669.448,123.364 c 0,8.515 -0.065,17.029 0.05,25.538 0.024,2.111 -0.336,2.946 -2.718,2.867 -6.118,-0.198 -12.246,-0.01 -18.368,-0.099 -1.735,-0.025 -2.53,0.232 -2.476,2.278 0.157,5.544 0.148,11.099 0.005,16.643 -0.055,2.012 0.706,2.333 2.476,2.308 6.023,-0.099 12.062,0.139 18.076,-0.119 2.693,-0.113 3.058,0.816 3.015,3.173 -0.154,7.457 0.048,14.924 -0.125,22.381 -0.053,2.357 0.717,2.787 2.857,2.747 6.696,-0.133 13.396,-0.178 20.093,0.015 2.505,0.074 2.945,-0.746 2.895,-3.039 -0.153,-7.363 0.094,-14.736 -0.137,-22.094 -0.084,-2.777 0.874,-3.183 3.325,-3.158 11.287,0.124 22.578,-0.02 33.865,0.119 2.347,0.03 2.826,-0.712 2.768,-2.876 -0.149,-5.352 -0.144,-10.714 0,-16.07 0.053,-1.953 -0.604,-2.328 -2.408,-2.313 -11.667,0.074 -23.339,-0.015 -35.006,0.089 -1.992,0.015 -2.53,-0.455 -2.515,-2.491 0.094,-15.877 0.064,-31.759 0.044,-47.637 -0.005,-5.203 0.558,-10.3139 2.57,-15.1561 3.301,-7.941 10.338,-11.9578 19.895,-11.4539 5.96,0.311 11.731,1.5762 17.315,3.627 1.799,0.6621 2.407,0.266 2.619,-1.5961 0.588,-5.2239 1.31,-10.4278 1.996,-15.636 0.134,-0.9828 0.342,-1.7738 -1.051,-2.164 -13.17,-3.727 -26.449,-6.3199 -40.122,-3.1028 -15.383,3.6219 -23.724,14.0028 -27.189,28.9028 -1.927,8.2769 -1.793,16.6981 -1.754,25.1131 0.024,4.403 0.005,8.801 0.005,13.204"
       style="fill:#ffe6d5;fill-opacity:1;fill-rule:nonzero;stroke:none;stroke-width:0.1"
       id="path22" />
    <path
       d="m 457.021,157.434 c 0,21.714 0.039,43.427 -0.055,65.141 -0.009,2.159 0.525,2.683 2.655,2.634 6.883,-0.148 13.771,-0.148 20.66,0.004 2.144,0.045 2.654,-0.499 2.649,-2.648 -0.069,-40.462 -0.054,-80.924 -0.059,-121.386 0,-4.6849 0.01,-9.3688 1.132,-13.9649 1.729,-7.0973 5.86,-10.4821 13.218,-10.7379 2.867,-0.0992 5.747,-0.1492 8.569,0.4886 1.482,0.3313 1.996,-0.1226 2.055,-1.675 0.204,-5.5398 0.515,-11.0789 0.835,-16.6136 0.07,-1.1274 -0.123,-1.6563 -1.422,-1.8532 -8.93,-1.3539 -17.875,-2.1941 -26.804,-0.2621 -12.685,2.7481 -19.02,11.4743 -21.674,23.5321 -1.507,6.859 -1.783,13.8218 -1.769,20.814 0.035,18.842 0.01,37.685 0.01,56.527"
       style="fill:#ffe6d5;fill-opacity:1;fill-rule:nonzero;stroke:none;stroke-width:0.1"
       id="path24" />
    <path
       d="m 891.787,115.18 c 0,-18.1761 -0.05,-36.346 0.059,-54.5171 0.015,-2.382 -0.578,-3.0539 -2.979,-2.9988 -6.979,0.1679 -13.961,0.123 -20.943,0.0148 -1.774,-0.025 -2.234,0.4602 -2.234,2.2281 0.05,36.9192 0.05,73.843 0.005,110.762 -0.005,1.734 0.386,2.268 2.194,2.238 7.081,-0.118 14.158,-0.178 21.235,0.025 2.49,0.069 2.708,-0.914 2.698,-2.95 -0.06,-18.264 -0.035,-36.534 -0.035,-54.802"
       style="fill:#ffe6d5;fill-opacity:1;fill-rule:nonzero;stroke:none;stroke-width:0.1"
       id="path26" />
    <path
       d="m 878.969,194.612 c -9.359,0.045 -15.901,6.414 -15.906,15.482 -0.011,9.058 6.671,15.452 16.011,15.324 9.191,-0.129 15.437,-6.468 15.358,-15.611 -0.079,-8.959 -6.468,-15.239 -15.463,-15.195"
       style="fill:#ffe6d5;fill-opacity:1;fill-rule:nonzero;stroke:none;stroke-width:0.1"
       id="path28" />
    <text
       xml:space="preserve"
       style="font-size:196.335px;line-height:1.25;font-family:FreeSans;-inkscape-font-specification:FreeSans;stroke-width:4.90836"
       x="905.45593"
       y="-58.767506"
       id="text297"
       transform="scale(1,-1)"><tspan
         sodipodi:role="line"
         id="tspan295"
         style="font-style:normal;font-variant:normal;font-weight:600;font-stretch:normal;font-family:FreeSans;-inkscape-font-specification:'FreeSans Semi-Bold';fill:#ff9955;stroke-width:4.90836"
         x="905.45593"
         y="-58.767506">FOOD</tspan></text>
  </g>
</svg>
